<svg width="96" height="97" viewBox="0 0 96 97" fill="none" xmlns="http://www.w3.org/2000/svg">
<path d="M45.5 16.001C45.5 16.2771 45.7239 16.501 46 16.501C46.2761 16.501 46.5 16.2771 46.5 16.001H45.5ZM46.5 11.001C46.5 10.7248 46.2761 10.501 46 10.501C45.7239 10.501 45.5 10.7248 45.5 11.001H46.5ZM50 16.001C50 16.2771 50.2239 16.501 50.5 16.501C50.7761 16.501 51 16.2771 51 16.001H50ZM51 11.001C51 10.7248 50.7761 10.501 50.5 10.501C50.2239 10.501 50 10.7248 50 11.001H51ZM54.5 16.001C54.5 16.2771 54.7239 16.501 55 16.501C55.2761 16.501 55.5 16.2771 55.5 16.001H54.5ZM55.5 11.001C55.5 10.7248 55.2761 10.501 55 10.501C54.7239 10.501 54.5 10.7248 54.5 11.001H55.5ZM59 16.001C59 16.2771 59.2239 16.501 59.5 16.501C59.7761 16.501 60 16.2771 60 16.001H59ZM60 11.001C60 10.7248 59.7761 10.501 59.5 10.501C59.2239 10.501 59 10.7248 59 11.001H60ZM63.5 16.001C63.5 16.2771 63.7239 16.501 64 16.501C64.2761 16.501 64.5 16.2771 64.5 16.001H63.5ZM64.5 11.001C64.5 10.7248 64.2761 10.501 64 10.501C63.7239 10.501 63.5 10.7248 63.5 11.001H64.5ZM68 16.001C68 16.2771 68.2239 16.501 68.5 16.501C68.7761 16.501 69 16.2771 69 16.001H68ZM69 11.001C69 10.7248 68.7761 10.501 68.5 10.501C68.2239 10.501 68 10.7248 68 11.001H69ZM72.5 16.001C72.5 16.2771 72.7239 16.501 73 16.501C73.2761 16.501 73.5 16.2771 73.5 16.001H72.5ZM73.5 11.001C73.5 10.7248 73.2761 10.501 73 10.501C72.7239 10.501 72.5 10.7248 72.5 11.001H73.5ZM46 25.001C45.7239 25.001 45.5 25.2248 45.5 25.501C45.5 25.7771 45.7239 26.001 46 26.001V25.001ZM73.5 26.001C73.7761 26.001 74 25.7771 74 25.501C74 25.2248 73.7761 25.001 73.5 25.001V26.001ZM46 28.001C45.7239 28.001 45.5 28.2248 45.5 28.501C45.5 28.7771 45.7239 29.001 46 29.001V28.001ZM65 29.001C65.2761 29.001 65.5 28.7771 65.5 28.501C65.5 28.2248 65.2761 28.001 65 28.001V29.001ZM46 31.001C45.7239 31.001 45.5 31.2248 45.5 31.501C45.5 31.7771 45.7239 32.001 46 32.001V31.001ZM70 32.001C70.2761 32.001 70.5 31.7771 70.5 31.501C70.5 31.2248 70.2761 31.001 70 31.001V32.001ZM46 34.001C45.7239 34.001 45.5 34.2248 45.5 34.501C45.5 34.7771 45.7239 35.001 46 35.001V34.001ZM73.5 35.001C73.7761 35.001 74 34.7771 74 34.501C74 34.2248 73.7761 34.001 73.5 34.001V35.001ZM46 37.001C45.7239 37.001 45.5 37.2248 45.5 37.501C45.5 37.7771 45.7239 38.001 46 38.001V37.001ZM65 38.001C65.2761 38.001 65.5 37.7771 65.5 37.501C65.5 37.2248 65.2761 37.001 65 37.001V38.001ZM46 40.001C45.7239 40.001 45.5 40.2248 45.5 40.501C45.5 40.7771 45.7239 41.001 46 41.001V40.001ZM70 41.001C70.2761 41.001 70.5 40.7771 70.5 40.501C70.5 40.2248 70.2761 40.001 70 40.001V41.001ZM12.9987 34.3349L13.3062 34.7292C13.3216 34.7171 13.3363 34.7043 13.3502 34.6905L12.9987 34.3349ZM31.9946 15.5587L32.3502 15.2072L31.9946 15.5587ZM32.5311 16.1014L32.1755 16.4529L32.5311 16.1014ZM32.5185 18.2599L32.167 17.9043L32.5185 18.2599ZM26.7396 23.2689C26.5432 23.463 26.5414 23.7796 26.7355 23.976C26.9296 24.1724 27.2462 24.1742 27.4426 23.9801L26.7396 23.2689ZM30.9217 14.4732L30.5661 14.8247V14.8247L30.9217 14.4732ZM28.7633 14.4607L28.4118 14.1051L28.7633 14.4607ZM10.8528 32.164L10.5013 31.8083C10.4874 31.8221 10.4744 31.8366 10.4622 31.8519L10.8528 32.164ZM6.74805 37.3016L7.13868 37.6137L6.74805 37.3016ZM7.81363 38.3796L7.50609 37.9854L7.81363 38.3796ZM39.5 49.7448C39.5 50.0209 39.7239 50.2448 40 50.2448C40.2761 50.2448 40.5 50.0209 40.5 49.7448H39.5ZM74.5809 55.501V55.001C74.3048 55.001 74.0809 55.2248 74.0809 55.501H74.5809ZM7.81363 50.2448C8.08977 50.2448 8.31363 50.0209 8.31363 49.7448C8.31363 49.4687 8.08977 49.2448 7.81363 49.2448V50.2448ZM68.5 49.2448C68.2239 49.2448 68 49.4687 68 49.7448C68 50.0209 68.2239 50.2448 68.5 50.2448V49.2448ZM79.5 53.501V15.501H78.5V53.501H79.5ZM77 13.001H73V14.001H77V13.001ZM73 13.001H68.5V14.001H73V13.001ZM68.5 13.001H64V14.001H68.5V13.001ZM64 13.001H59.5V14.001H64V13.001ZM59.5 13.001H55V14.001H59.5V13.001ZM55 13.001H50.5V14.001H55V13.001ZM50.5 13.001H46V14.001H50.5V13.001ZM46 13.001H42V14.001H46V13.001ZM79.5 15.501C79.5 14.1203 78.3807 13.001 77 13.001V14.001C77.8284 14.001 78.5 14.6725 78.5 15.501H79.5ZM77 56.001C78.3807 56.001 79.5 54.8817 79.5 53.501H78.5C78.5 54.3294 77.8284 55.001 77 55.001V56.001ZM40.5 15.501C40.5 14.6725 41.1716 14.001 42 14.001V13.001C40.6193 13.001 39.5 14.1203 39.5 15.501H40.5ZM46.5 16.001V13.501H45.5V16.001H46.5ZM46.5 13.501V11.001H45.5V13.501H46.5ZM51 16.001V13.501H50V16.001H51ZM51 13.501V11.001H50V13.501H51ZM55.5 16.001V13.501H54.5V16.001H55.5ZM55.5 13.501V11.001H54.5V13.501H55.5ZM60 16.001V13.501H59V16.001H60ZM60 13.501V11.001H59V13.501H60ZM64.5 16.001V13.501H63.5V16.001H64.5ZM64.5 13.501V11.001H63.5V13.501H64.5ZM69 16.001V13.501H68V16.001H69ZM69 13.501V11.001H68V13.501H69ZM73.5 16.001V13.501H72.5V16.001H73.5ZM73.5 13.501V11.001H72.5V13.501H73.5ZM46 26.001H73.5V25.001H46V26.001ZM46 29.001H65V28.001H46V29.001ZM46 32.001H70V31.001H46V32.001ZM46 35.001H73.5V34.001H46V35.001ZM46 38.001H65V37.001H46V38.001ZM46 41.001H70V40.001H46V41.001ZM2.92888 49.2448C1.3113 49.2448 0 50.5561 0 52.1737H1C1 51.1084 1.86359 50.2448 2.92888 50.2448V49.2448ZM0 52.1737V92.2503H1V52.1737H0ZM0 92.2503C0 93.8678 1.31131 95.1792 2.92888 95.1792V94.1792C1.86359 94.1792 1 93.3156 1 92.2503H0ZM2.92888 95.1792H32.9863V94.1792H2.92888V95.1792ZM32.9863 95.1792C33.2132 95.1792 33.3971 95.3631 33.3971 95.59H34.3971C34.3971 94.8108 33.7655 94.1792 32.9863 94.1792V95.1792ZM33.3971 95.59C33.3971 96.3692 34.0288 97.0008 34.808 97.0008V96.0008C34.5811 96.0008 34.3971 95.8169 34.3971 95.59H33.3971ZM34.808 97.0008H40.273V96.0008H34.808V97.0008ZM40.273 97.0008C41.0522 97.0008 41.6838 96.3692 41.6838 95.59H40.6838C40.6838 95.8169 40.4999 96.0008 40.273 96.0008V97.0008ZM41.6838 95.59C41.6838 95.3631 41.8677 95.1792 42.0946 95.1792V94.1792C41.3155 94.1792 40.6838 94.8108 40.6838 95.59H41.6838ZM42.0946 95.1792H72.1521V94.1792H42.0946V95.1792ZM72.1521 95.1792C73.7696 95.1792 75.0809 93.8678 75.0809 92.2503H74.0809C74.0809 93.3156 73.2174 94.1792 72.1521 94.1792V95.1792ZM13.3502 34.6905L32.3461 15.9143L31.6431 15.2031L12.6472 33.9793L13.3502 34.6905ZM31.639 15.9102L32.1755 16.4529L32.8867 15.75L32.3502 15.2072L31.639 15.9102ZM32.167 17.9043L26.7396 23.2689L27.4426 23.9801L32.87 18.6155L32.167 17.9043ZM32.3502 15.2072L31.2773 14.1217L30.5661 14.8247L31.639 15.9102L32.3502 15.2072ZM28.4118 14.1051L10.5013 31.8083L11.2043 32.5196L29.1148 14.8163L28.4118 14.1051ZM10.4622 31.8519L6.35742 36.9895L7.13868 37.6137L11.2435 32.4761L10.4622 31.8519ZM12.6911 33.9407L7.50609 37.9854L8.12116 38.7739L13.3062 34.7292L12.6911 33.9407ZM10.4972 32.5154L12.6431 34.6864L13.3543 33.9834L11.2084 31.8125L10.4972 32.5154ZM6.35742 36.9895C5.42259 38.1595 6.94031 39.695 8.12116 38.7739L7.50609 37.9854C7.42833 38.0461 7.36689 38.0534 7.32205 38.0484C7.26908 38.0426 7.20844 38.0148 7.15712 37.9629C7.10579 37.911 7.07877 37.85 7.0735 37.797C7.06903 37.7521 7.07712 37.6907 7.13868 37.6137L6.35742 36.9895ZM31.2773 14.1217C30.4906 13.3258 29.2077 13.3184 28.4118 14.1051L29.1148 14.8163C29.5179 14.4178 30.1677 14.4216 30.5661 14.8247L31.2773 14.1217ZM32.1755 16.4529C32.5739 16.856 32.5701 17.5058 32.167 17.9043L32.87 18.6155C33.6659 17.8288 33.6734 16.5458 32.8867 15.75L32.1755 16.4529ZM39.5 15.501V49.7448H40.5V15.501H39.5ZM75.0809 92.2503V55.501H74.0809V92.2503H75.0809ZM74.5809 56.001H77V55.001H74.5809V56.001ZM72.1521 50.2448C73.2174 50.2448 74.0809 51.1084 74.0809 52.1737H75.0809C75.0809 50.5561 73.7696 49.2448 72.1521 49.2448V50.2448ZM74.0809 52.1737V92.2503H75.0809V52.1737H74.0809ZM2.92888 50.2448H7.81363V49.2448H2.92888V50.2448ZM72.1521 49.2448H68.5V50.2448H72.1521V49.2448Z" fill="#000577"/>
<path d="M5.77209 40.109C4.93875 41.2757 4.07209 43.509 7.27209 43.109C11.2721 42.609 27.2721 29.1089 33.7721 34.1089C40.2721 39.1089 33.2721 44.6088 33.2721 44.6088" stroke="#A8ABFF" stroke-linecap="round" stroke-linejoin="round"/>
<path d="M3.53589 48.7793C3.53589 47.908 4.10176 47.1344 4.93532 46.8806C17.125 43.1698 24.4763 43.1976 37.045 47.3161V92.2505C24.8384 87.686 17.558 87.1343 6.30336 91.1933C4.97123 91.6737 3.53589 90.7081 3.53589 89.292V48.7793Z" fill="#A8ABFF"/>
<path d="M38.0381 47.3161C50.4178 42.9787 57.758 42.9673 70.1629 46.872C70.9876 47.1316 71.5446 47.9008 71.5446 48.7654V89.5418C71.5446 90.8877 70.2399 91.8473 68.9438 91.4852C57.4591 88.2767 50.1915 88.6892 38.0381 92.2505V47.3161Z" fill="#A8ABFF"/>
<path d="M85.6707 44.0008C80.2423 44.0008 75.8417 39.6105 75.8417 34.1949C75.8417 30.3568 78.0519 27.0338 81.2718 25.4234C81.8893 25.1146 82.242 24.5101 82.242 23.8196V21.8856L89.0994 21.8856V23.8196C89.0994 24.5101 89.4521 25.1146 90.0696 25.4234C93.2895 27.0338 95.4997 30.3568 95.4997 34.1949C95.4997 39.6105 91.0991 44.0008 85.6707 44.0008Z" fill="#A8ABFF"/>
<path d="M82.232 21.6719H81.732C81.732 21.948 81.9559 22.1719 82.232 22.1719V21.6719ZM82.232 18.0679H82.732H82.232ZM83.185 17.115V16.615V17.115ZM83.371 17.115V17.615V17.115ZM84.1178 16.5009L83.6273 16.4043V16.4043L84.1178 16.5009ZM84.1557 16.3086L84.6463 16.4052V16.4052L84.1557 16.3086ZM89.0895 21.6719V22.1719C89.3656 22.1719 89.5895 21.948 89.5895 21.6719H89.0895ZM89.0895 18.0679H89.5895H89.0895ZM88.1365 17.115V17.615V17.115ZM87.8335 17.115V16.615V17.115ZM87.0867 16.5009L86.5961 16.5975L86.5961 16.5976L87.0867 16.5009ZM87.0488 16.3086L87.5394 16.212L87.5394 16.212L87.0488 16.3086ZM81.2157 33.5386L80.7327 33.4094V33.4094L81.2157 33.5386ZM90.0038 33.5333L90.4868 33.4041V33.4041L90.0038 33.5333ZM81.365 34.3529L81.7708 34.0607L81.365 34.3529ZM81.7704 34.9158L81.3646 35.208L81.7704 34.9158ZM82.6632 34.8608L83.1018 35.101L83.1018 35.101L82.6632 34.8608ZM82.7185 34.7599L82.28 34.5197L82.28 34.5197L82.7185 34.7599ZM87.6468 34.7836L87.1996 34.5599L87.1996 34.5599L87.6468 34.7836ZM87.6565 34.7642L88.1037 34.9879L88.1037 34.9878L87.6565 34.7642ZM88.4877 34.7511L88.9277 34.5135L88.9277 34.5135L88.4877 34.7511ZM88.5446 34.8564L88.1046 35.0939L88.1046 35.0939L88.5446 34.8564ZM89.4401 34.9172L89.0363 34.6223L89.4401 34.9172ZM89.8502 34.3556L90.254 34.6505L89.8502 34.3556ZM86.0125 34.7873L85.5666 34.5612L86.0125 34.7873ZM86.8294 34.7859L87.2754 34.5597L86.8294 34.7859ZM83.5505 34.7808L83.9965 34.5547L83.5505 34.7808ZM86.0304 0.999878C86.0304 0.723736 85.8065 0.499878 85.5304 0.499878C85.2542 0.499878 85.0304 0.723736 85.0304 0.999878H86.0304ZM43.8733 58.9842C43.6062 59.0542 43.4464 59.3275 43.5164 59.5946C43.5864 59.8617 43.8597 60.0215 44.1268 59.9515L43.8733 58.9842ZM65.1192 59.9529C65.387 60.02 65.6586 59.8573 65.7257 59.5894C65.7929 59.3216 65.6301 59.05 65.3623 58.9829L65.1192 59.9529ZM30.1141 59.9515C30.3812 60.0215 30.6545 59.8617 30.7245 59.5946C30.7944 59.3275 30.6346 59.0542 30.3675 58.9842L30.1141 59.9515ZM8.87856 58.9829C8.6107 59.05 8.44799 59.3216 8.51512 59.5894C8.58226 59.8573 8.85383 60.02 9.12168 59.9529L8.87856 58.9829ZM83.185 17.615H83.371V16.615H83.185V17.615ZM84.6084 16.5976L84.6463 16.4052L83.6651 16.212L83.6273 16.4043L84.6084 16.5976ZM88.1365 16.615H87.8335V17.615H88.1365V16.615ZM87.5773 16.4043L87.5394 16.212L86.5582 16.4052L86.5961 16.5975L87.5773 16.4043ZM89.0895 21.1719H86.8309V22.1719H89.0895V21.1719ZM86.8309 21.1719H84.39V22.1719H86.8309V21.1719ZM84.39 21.1719H82.232V22.1719H84.39V21.1719ZM83.907 21.5427L80.7327 33.4094L81.6987 33.6679L84.873 21.8011L83.907 21.5427ZM86.3479 21.8011L89.5208 33.6625L90.4868 33.4041L87.3139 21.5427L86.3479 21.8011ZM80.9593 34.6451L81.3646 35.208L82.1761 34.6236L81.7708 34.0607L80.9593 34.6451ZM83.1018 35.101L83.157 35.0001L82.28 34.5197L82.2247 34.6206L83.1018 35.101ZM88.094 35.0072L88.1037 34.9879L87.2093 34.5405L87.1996 34.5599L88.094 35.0072ZM88.0478 34.9886L88.1046 35.0939L88.9845 34.6188L88.9277 34.5135L88.0478 34.9886ZM89.8438 35.2121L90.254 34.6505L89.4464 34.0607L89.0363 34.6223L89.8438 35.2121ZM86.4585 35.0135C86.4568 35.0167 86.4509 35.0245 86.4412 35.0302C86.4331 35.0349 86.4265 35.036 86.4221 35.036C86.4177 35.036 86.4106 35.035 86.402 35.0299C86.3916 35.0238 86.3853 35.0156 86.3835 35.012L87.2754 34.5597C86.9193 33.8576 85.9198 33.8648 85.5666 34.5612L86.4585 35.0135ZM84.8196 35.0149C84.8181 35.0179 84.8123 35.0256 84.8024 35.0314C84.7942 35.0362 84.7875 35.0372 84.7832 35.0372C84.7789 35.0372 84.7721 35.0362 84.764 35.0314C84.7541 35.0256 84.7483 35.0179 84.7468 35.0149L85.6386 34.5626C85.2834 33.8621 84.2829 33.8621 83.9277 34.5626L84.8196 35.0149ZM83.1046 35.007C83.4517 35.6914 84.4563 35.7313 84.8196 35.0149L83.9277 34.5626C83.9301 34.5579 83.9373 34.5488 83.9486 34.5423C83.958 34.5369 83.965 34.5363 83.9681 34.5363C83.9713 34.5364 83.9761 34.5371 83.9822 34.5407C83.99 34.5454 83.995 34.5518 83.9965 34.5547L83.1046 35.007ZM83.157 35.0001C83.1567 35.0008 83.1549 35.0037 83.1512 35.0073C83.1477 35.0108 83.1436 35.0138 83.1395 35.016C83.1317 35.0202 83.1264 35.0204 83.1247 35.0204C83.123 35.0204 83.1198 35.02 83.1152 35.0172C83.1127 35.0156 83.1101 35.0136 83.1079 35.0112C83.1055 35.0087 83.1046 35.0069 83.1046 35.007L83.9965 34.5547C83.6519 33.8752 82.6621 33.8221 82.28 34.5197L83.157 35.0001ZM89.5208 33.6625C89.5575 33.7997 89.5301 33.9461 89.4464 34.0607L90.254 34.6505C90.516 34.2916 90.6016 33.8334 90.4868 33.4041L89.5208 33.6625ZM80.7327 33.4094C80.619 33.8345 80.7022 34.2881 80.9593 34.6451L81.7708 34.0607C81.689 33.9472 81.6626 33.803 81.6987 33.6679L80.7327 33.4094ZM87.5394 16.212C87.4494 15.7552 87.1901 15.3101 86.8544 14.9778C86.5212 14.6481 86.0564 14.3762 85.5304 14.3762V15.3762C85.7087 15.3762 85.9351 15.4749 86.151 15.6886C86.3644 15.8998 86.5121 16.1709 86.5582 16.4052L87.5394 16.212ZM87.8335 16.615C87.7087 16.615 87.6014 16.5267 87.5773 16.4043L86.5961 16.5976C86.7126 17.1888 87.231 17.615 87.8335 17.615V16.615ZM81.3646 35.208C81.8068 35.822 82.7383 35.7647 83.1018 35.101L82.2247 34.6206C82.2206 34.6281 82.2174 34.6303 82.2155 34.6314C82.2126 34.6332 82.2077 34.6351 82.2012 34.6355C82.1947 34.6359 82.1896 34.6346 82.1865 34.6332C82.1846 34.6323 82.1811 34.6305 82.1761 34.6236L81.3646 35.208ZM89.5895 18.0679C89.5895 17.2655 88.939 16.615 88.1365 16.615V17.615C88.3867 17.615 88.5895 17.8178 88.5895 18.0679H89.5895ZM88.1046 35.0939C88.4647 35.7607 89.3969 35.824 89.8438 35.2121L89.0363 34.6223C89.0311 34.6294 89.0273 34.6314 89.025 34.6324C89.0216 34.634 89.0162 34.6353 89.0094 34.6348C89.0026 34.6344 88.9974 34.6323 88.9943 34.6303C88.9922 34.629 88.9887 34.6266 88.9845 34.6188L88.1046 35.0939ZM84.6463 16.4052C84.6985 16.14 84.8293 15.864 85.0057 15.6631C85.1818 15.4625 85.3649 15.3762 85.5304 15.3762V14.3762C84.9915 14.3762 84.5553 14.6605 84.2542 15.0033C83.9534 15.3459 83.749 15.7861 83.6651 16.212L84.6463 16.4052ZM88.1037 34.9878C88.1038 34.9877 88.1027 34.9898 88.0998 34.9928C88.0971 34.9958 88.0938 34.9984 88.0904 35.0005C88.0838 35.0045 88.0788 35.0052 88.076 35.0052C88.0732 35.0052 88.0682 35.0047 88.0615 35.001C88.058 34.999 88.0546 34.9965 88.0518 34.9936C88.0489 34.9906 88.0477 34.9886 88.0478 34.9887L88.9277 34.5135C88.5551 33.8236 87.5599 33.8393 87.2093 34.5406L88.1037 34.9878ZM83.371 17.615C83.9735 17.615 84.4919 17.1888 84.6084 16.5976L83.6273 16.4043C83.6031 16.5267 83.4958 16.615 83.371 16.615V17.615ZM86.3835 35.012C86.7393 35.7136 87.7422 35.7107 88.094 35.0072L87.1996 34.5599C87.2012 34.5567 87.2072 34.5486 87.2174 34.5426C87.2258 34.5376 87.2328 34.5365 87.2374 34.5365C87.242 34.5365 87.249 34.5376 87.2575 34.5425C87.2677 34.5485 87.2737 34.5565 87.2754 34.5597L86.3835 35.012ZM82.732 18.0679C82.732 17.8178 82.9348 17.615 83.185 17.615V16.615C82.3825 16.615 81.732 17.2655 81.732 18.0679H82.732ZM84.7468 35.0149C85.1035 35.7182 86.1047 35.711 86.4585 35.0135L85.5666 34.5612C85.5681 34.5582 85.5737 34.5507 85.5832 34.5451C85.591 34.5405 85.5974 34.5395 85.6015 34.5395C85.6056 34.5395 85.6124 34.5405 85.6208 34.5454C85.6309 34.5513 85.637 34.5593 85.6386 34.5626L84.7468 35.0149ZM82.732 21.6719V18.0679H81.732V21.6719H82.732ZM89.5895 21.6719V18.0679H88.5895V21.6719H89.5895ZM44.1268 59.9515C51.5911 57.9958 57.482 58.0387 65.1192 59.9529L65.3623 58.9829C57.5715 57.0302 51.5095 56.9835 43.8733 58.9842L44.1268 59.9515ZM30.3675 58.9842C22.7313 56.9835 16.6694 57.0302 8.87856 58.9829L9.12168 59.9529C16.7588 58.0387 22.6497 57.9958 30.1141 59.9515L30.3675 58.9842ZM86.0304 14.8762V0.999878H85.0304V14.8762H86.0304Z" fill="#000577"/>
<path d="M44.0001 64.4679C51.5503 62.4897 57.5268 62.5345 65.2407 64.4679M30.2408 64.4679C22.6905 62.4897 16.7141 62.5345 9.00012 64.4679M44.0001 67.4679C51.5503 65.4897 57.5268 65.5345 65.2407 67.4679M30.2408 67.4679C22.6905 65.4897 16.7141 65.5345 9.00012 67.4679M44.0001 70.4679C51.5503 68.4897 57.5268 68.5345 65.2407 70.4679M30.2408 70.4679C22.6905 68.4897 16.7141 68.5345 9.00012 70.4679M44.0001 73.4679C51.5503 71.4897 57.5268 71.5345 65.2407 73.4679M30.2408 73.4679C22.6905 71.4897 16.7141 71.5345 9.00012 73.4679" stroke="white" stroke-linecap="round" stroke-linejoin="round"/>
</svg>
