<svg width="96" height="97" viewBox="0 0 96 97" fill="none" xmlns="http://www.w3.org/2000/svg">
<path d="M84 16H43C41.8954 16 41 16.8954 41 18V39.5H48.5C50.2173 39.59 50.8407 40.0464 51 42V61H84C85.1046 61 86 60.1046 86 59V18C86 16.8954 85.1046 16 84 16Z" fill="#A8ABFF"/>
<path d="M24 53C24 51.8954 24.8954 51 26 51H47C48.1046 51 49 51.8954 49 53V80C49 81.1046 48.1046 82 47 82H26C24.8954 82 24 81.1046 24 80V53Z" fill="#A8ABFF"/>
<path d="M74 68C74 66.8954 74.8954 66 76 66H85C86.1046 66 87 66.8954 87 68V81C87 82.1046 86.1046 83 85 83H76C74.8954 83 74 82.1046 74 81V68Z" fill="#A8ABFF"/>
<path d="M2.5 1H93.5C94.6046 1 95.5 1.89543 95.5 3V8H0.5V3C0.5 1.89543 1.39543 1 2.5 1Z" fill="#A8ABFF"/>
<path d="M84 16H43C41.8954 16 41 16.8954 41 18V39.5H48.5C50.2173 39.59 50.8407 40.0464 51 42V61H84C85.1046 61 86 60.1046 86 59V18C86 16.8954 85.1046 16 84 16Z" stroke="#A8ABFF"/>
<path d="M24 53C24 51.8954 24.8954 51 26 51H47C48.1046 51 49 51.8954 49 53V80C49 81.1046 48.1046 82 47 82H26C24.8954 82 24 81.1046 24 80V53Z" stroke="#A8ABFF"/>
<path d="M74 68C74 66.8954 74.8954 66 76 66H85C86.1046 66 87 66.8954 87 68V81C87 82.1046 86.1046 83 85 83H76C74.8954 83 74 82.1046 74 81V68Z" stroke="#A8ABFF"/>
<path d="M2.5 1H93.5C94.6046 1 95.5 1.89543 95.5 3V8H0.5V3C0.5 1.89543 1.39543 1 2.5 1Z" stroke="#A8ABFF"/>
<path d="M49.5 39.5C49.5 39.7761 49.7239 40 50 40C50.2761 40 50.5 39.7761 50.5 39.5H49.5ZM51 45.5C50.7239 45.5 50.5 45.7239 50.5 46C50.5 46.2761 50.7239 46.5 51 46.5V45.5ZM51 47.5C50.7239 47.5 50.5 47.7239 50.5 48C50.5 48.2761 50.7239 48.5 51 48.5V47.5ZM8 39.5C7.72386 39.5 7.5 39.7239 7.5 40C7.5 40.2761 7.72386 40.5 8 40.5V39.5ZM8 42.5C7.72386 42.5 7.5 42.7239 7.5 43C7.5 43.2761 7.72386 43.5 8 43.5V42.5ZM8 31.5C7.72386 31.5 7.5 31.7239 7.5 32C7.5 32.2761 7.72386 32.5 8 32.5V31.5ZM33 32.5C33.2761 32.5 33.5 32.2761 33.5 32C33.5 31.7239 33.2761 31.5 33 31.5V32.5ZM8 45.5C7.72386 45.5 7.5 45.7239 7.5 46C7.5 46.2761 7.72386 46.5 8 46.5V45.5ZM8 48.5C7.72386 48.5 7.5 48.7239 7.5 49C7.5 49.2761 7.72386 49.5 8 49.5V48.5ZM24 41.5C23.7239 41.5 23.5 41.7239 23.5 42C23.5 42.2761 23.7239 42.5 24 42.5V41.5ZM27.5 42.5C27.7761 42.5 28 42.2761 28 42C28 41.7239 27.7761 41.5 27.5 41.5V42.5ZM24 43C23.7239 43 23.5 43.2239 23.5 43.5C23.5 43.7761 23.7239 44 24 44V43ZM27.5 44C27.7761 44 28 43.7761 28 43.5C28 43.2239 27.7761 43 27.5 43V44ZM24 44.5C23.7239 44.5 23.5 44.7239 23.5 45C23.5 45.2761 23.7239 45.5 24 45.5V44.5ZM27.5 45.5C27.7761 45.5 28 45.2761 28 45C28 44.7239 27.7761 44.5 27.5 44.5V45.5ZM71 70.5C71.2761 70.5 71.5 70.2761 71.5 70C71.5 69.7239 71.2761 69.5 71 69.5V70.5ZM68 73.5C68.2761 73.5 68.5 73.2761 68.5 73C68.5 72.7239 68.2761 72.5 68 72.5V73.5ZM65 76.5C65.2761 76.5 65.5 76.2761 65.5 76C65.5 75.7239 65.2761 75.5 65 75.5V76.5ZM70 79.5C70.2761 79.5 70.5 79.2761 70.5 79C70.5 78.7239 70.2761 78.5 70 78.5V79.5ZM4.35355 3.14645C4.15829 2.95118 3.84171 2.95118 3.64645 3.14645C3.45118 3.34171 3.45118 3.65829 3.64645 3.85355L4.35355 3.14645ZM6.64645 6.85355C6.84171 7.04882 7.15829 7.04882 7.35355 6.85355C7.54882 6.65829 7.54882 6.34171 7.35355 6.14645L6.64645 6.85355ZM3.64645 6.14645C3.45118 6.34171 3.45118 6.65829 3.64645 6.85355C3.84171 7.04882 4.15829 7.04882 4.35355 6.85355L3.64645 6.14645ZM7.35355 3.85355C7.54882 3.65829 7.54882 3.34171 7.35355 3.14645C7.15829 2.95118 6.84171 2.95118 6.64645 3.14645L7.35355 3.85355ZM10 4.5C9.72386 4.5 9.5 4.72386 9.5 5C9.5 5.27614 9.72386 5.5 10 5.5V4.5ZM13 5.5C13.2761 5.5 13.5 5.27614 13.5 5C13.5 4.72386 13.2761 4.5 13 4.5V5.5ZM48 72V72.5C48.2761 72.5 48.5 72.2761 48.5 72H48ZM44 58.5C43.7239 58.5 43.5 58.7239 43.5 59C43.5 59.2761 43.7239 59.5 44 59.5V58.5ZM26 72H25.5C25.5 72.2761 25.7239 72.5 26 72.5V72ZM30.5 59.5C30.7761 59.5 31 59.2761 31 59C31 58.7239 30.7761 58.5 30.5 58.5V59.5ZM81.5 45.5H77V46.5H81.5V45.5ZM77.5 46V39.5H76.5V46H77.5ZM50.5 39.5C50.5 32.3203 56.3203 26.5 63.5 26.5V25.5C55.768 25.5 49.5 31.768 49.5 39.5H50.5ZM77.5 39.5C77.5 31.768 71.232 25.5 63.5 25.5V26.5C70.6797 26.5 76.5 32.3203 76.5 39.5H77.5ZM83 47C83 46.1716 82.3284 45.5 81.5 45.5V46.5C81.7761 46.5 82 46.7239 82 47H83ZM81.5 48.5C82.3284 48.5 83 47.8284 83 47H82C82 47.2761 81.7761 47.5 81.5 47.5V48.5ZM51 46.5H77V45.5H51V46.5ZM51 48.5H81.5V47.5H51V48.5ZM0 8.5V68.5H1V8.5H0ZM96 68.5V8.5H95V68.5H96ZM93.5 71C94.8807 71 96 69.8807 96 68.5H95C95 69.3284 94.3284 70 93.5 70V71ZM2.5 70C1.67157 70 1 69.3284 1 68.5H0C0 69.8807 1.11929 71 2.5 71V70ZM8 32.5H33V31.5H8V32.5ZM31 15.5H10V16.5H31V15.5ZM10 15.5C8.61929 15.5 7.5 16.6193 7.5 18H8.5C8.5 17.1716 9.17157 16.5 10 16.5V15.5ZM7.5 18V24H8.5V18H7.5ZM7.5 24C7.5 25.3807 8.61929 26.5 10 26.5V25.5C9.17157 25.5 8.5 24.8284 8.5 24H7.5ZM10 26.5H31V25.5H10V26.5ZM31 26.5C32.3807 26.5 33.5 25.3807 33.5 24H32.5C32.5 24.8284 31.8284 25.5 31 25.5V26.5ZM33.5 24V18H32.5V24H33.5ZM33.5 18C33.5 16.6193 32.3807 15.5 31 15.5V16.5C31.8284 16.5 32.5 17.1716 32.5 18H33.5ZM10 55.5C8.61929 55.5 7.5 56.6193 7.5 58H8.5C8.5 57.1716 9.17157 56.5 10 56.5V55.5ZM7.5 58V58.5H8.5V58H7.5ZM7.5 58.5C7.5 59.8807 8.61929 61 10 61V60C9.17157 60 8.5 59.3284 8.5 58.5H7.5ZM24 40H49V39H24V40ZM49 40C49.8284 40 50.5 40.6716 50.5 41.5H51.5C51.5 40.1193 50.3807 39 49 39V40ZM50.5 94.5C50.5 95.3284 49.8284 96 49 96V97C50.3807 97 51.5 95.8807 51.5 94.5H50.5ZM49 96H24V97H49V96ZM24 96C23.1716 96 22.5 95.3284 22.5 94.5H21.5C21.5 95.8807 22.6193 97 24 97V96ZM24 42.5H27.5V41.5H24V42.5ZM24 44H27.5V43H24V44ZM24 45.5H27.5V44.5H24V45.5ZM88 63.5C88.8284 63.5 89.5 64.1716 89.5 65H90.5C90.5 63.6193 89.3807 62.5 88 62.5V63.5ZM89.5 84C89.5 84.8284 88.8284 85.5 88 85.5V86.5C89.3807 86.5 90.5 85.3807 90.5 84H89.5ZM10 61H22V60H10V61ZM22.5 60.5V56H21.5V60.5H22.5ZM22 55.5H10V56.5H22V55.5ZM22.5 56V49H21.5V56H22.5ZM8 49.5H22V48.5H8V49.5ZM22.5 49V46H21.5V49H22.5ZM8 46.5H22V45.5H8V46.5ZM22.5 46V43H21.5V46H22.5ZM22.5 43V41.5H21.5V43H22.5ZM8 43.5H22V42.5H8V43.5ZM22.5 41.5C22.5 41.0521 22.6957 40.6505 23.008 40.3749L22.3462 39.6251C21.828 40.0825 21.5 40.7532 21.5 41.5H22.5ZM23.008 40.3749C23.2727 40.1412 23.6192 40 24 40V39C23.3663 39 22.7866 39.2364 22.3462 39.6251L23.008 40.3749ZM8 40.5H22.6771V39.5H8V40.5ZM22.5 94.5V70.5H21.5V94.5H22.5ZM22.5 70.5V60.5H21.5V70.5H22.5ZM2.5 71H22V70H2.5V71ZM88 85.5H51V86.5H88V85.5ZM50.5 86V94.5H51.5V86H50.5ZM50.5 79V86H51.5V79H50.5ZM51 79.5H70V78.5H51V79.5ZM50.5 76V79H51.5V76H50.5ZM51 76.5H65V75.5H51V76.5ZM50.5 73V76H51.5V73H50.5ZM51 73.5H68V72.5H51V73.5ZM51 70.5H71V69.5H51V70.5ZM50.5 41.5V63H51.5V41.5H50.5ZM50.5 63V70H51.5V63H50.5ZM51 63.5H88V62.5H51V63.5ZM90 71H93.5V70H90V71ZM89.5 65V70.5H90.5V65H89.5ZM89.5 70.5V84H90.5V70.5H89.5ZM3.64645 3.85355L5.14645 5.35355L5.85355 4.64645L4.35355 3.14645L3.64645 3.85355ZM5.14645 5.35355L6.64645 6.85355L7.35355 6.14645L5.85355 4.64645L5.14645 5.35355ZM4.35355 6.85355L5.85355 5.35355L5.14645 4.64645L3.64645 6.14645L4.35355 6.85355ZM5.85355 5.35355L7.35355 3.85355L6.64645 3.14645L5.14645 4.64645L5.85355 5.35355ZM10 5.5H13V4.5H10V5.5ZM18.5 5C18.5 5.82843 17.8284 6.5 17 6.5V7.5C18.3807 7.5 19.5 6.38071 19.5 5H18.5ZM17 6.5C16.1716 6.5 15.5 5.82843 15.5 5H14.5C14.5 6.38071 15.6193 7.5 17 7.5V6.5ZM15.5 5C15.5 4.17157 16.1716 3.5 17 3.5V2.5C15.6193 2.5 14.5 3.61929 14.5 5H15.5ZM17 3.5C17.8284 3.5 18.5 4.17157 18.5 5H19.5C19.5 3.61929 18.3807 2.5 17 2.5V3.5ZM38.5 72C38.5 71.0554 38.8698 70.4667 39.4454 70.0899C40.0535 69.6918 40.9413 69.5 42 69.5V68.5C40.8496 68.5 39.7374 68.7036 38.8977 69.2532C38.0256 69.8241 37.5 70.7355 37.5 72H38.5ZM42 69.5C43.0587 69.5 43.9465 69.6918 44.5546 70.0899C45.1302 70.4667 45.5 71.0554 45.5 72H46.5C46.5 70.7355 45.9744 69.8241 45.1023 69.2532C44.2626 68.7036 43.1504 68.5 42 68.5V69.5ZM45.5 72C45.5 72.9446 45.1302 73.5333 44.5546 73.9101C43.9465 74.3082 43.0587 74.5 42 74.5V75.5C43.1504 75.5 44.2626 75.2964 45.1023 74.7468C45.9744 74.1759 46.5 73.2645 46.5 72H45.5ZM42 74.5C40.9413 74.5 40.0535 74.3082 39.4454 73.9101C38.8698 73.5333 38.5 72.9446 38.5 72H37.5C37.5 73.2645 38.0256 74.1759 38.8977 74.7468C39.7374 75.2964 40.8496 75.5 42 75.5V74.5ZM28.5 72C28.5 71.0554 28.8698 70.4667 29.4454 70.0899C30.0535 69.6918 30.9413 69.5 32 69.5V68.5C30.8496 68.5 29.7374 68.7036 28.8977 69.2532C28.0256 69.8241 27.5 70.7355 27.5 72H28.5ZM32 69.5C33.0587 69.5 33.9465 69.6918 34.5546 70.0899C35.1302 70.4667 35.5 71.0554 35.5 72H36.5C36.5 70.7355 35.9744 69.8241 35.1023 69.2532C34.2626 68.7036 33.1504 68.5 32 68.5V69.5ZM35.5 72C35.5 72.9446 35.1302 73.5333 34.5546 73.9101C33.9465 74.3082 33.0587 74.5 32 74.5V75.5C33.1504 75.5 34.2626 75.2964 35.1023 74.7468C35.9744 74.1759 36.5 73.2645 36.5 72H35.5ZM32 74.5C30.9413 74.5 30.0535 74.3082 29.4454 73.9101C28.8698 73.5333 28.5 72.9446 28.5 72H27.5C27.5 73.2645 28.0256 74.1759 28.8977 74.7468C29.7374 75.2964 30.8496 75.5 32 75.5V74.5ZM38 71.5H36V72.5H38V71.5ZM46 72.5H48V71.5H46V72.5ZM48.5 72V62H47.5V72H48.5ZM45 58.5H44V59.5H45V58.5ZM28 71.5H26V72.5H28V71.5ZM26.5 72V62H25.5V72H26.5ZM29 59.5H30.5V58.5H29V59.5ZM26.5 62C26.5 60.6193 27.6193 59.5 29 59.5V58.5C27.067 58.5 25.5 60.067 25.5 62H26.5ZM48.5 62C48.5 60.067 46.933 58.5 45 58.5V59.5C46.3807 59.5 47.5 60.6193 47.5 62H48.5ZM47 87.5H26V88.5H47V87.5ZM26 87.5C24.6193 87.5 23.5 88.6193 23.5 90H24.5C24.5 89.1716 25.1716 88.5 26 88.5V87.5ZM23.5 90V91H24.5V90H23.5ZM23.5 91C23.5 92.3807 24.6193 93.5 26 93.5V92.5C25.1716 92.5 24.5 91.8284 24.5 91H23.5ZM26 93.5H47V92.5H26V93.5ZM47 93.5C48.3807 93.5 49.5 92.3807 49.5 91H48.5C48.5 91.8284 47.8284 92.5 47 92.5V93.5ZM49.5 91V90H48.5V91H49.5ZM49.5 90C49.5 88.6193 48.3807 87.5 47 87.5V88.5C47.8284 88.5 48.5 89.1716 48.5 90H49.5ZM50.5 70V73H51.5V70H50.5Z" fill="#000577"/>
</svg>
