<svg width="93" height="97" viewBox="0 0 93 97" fill="none" xmlns="http://www.w3.org/2000/svg">
<path d="M0.710083 36.9999C0.710083 37.276 0.933943 37.4999 1.21008 37.4999C1.48623 37.4999 1.71008 37.276 1.71008 36.9999H0.710083ZM52.2899 36.9999C52.2899 37.276 52.5138 37.4999 52.7899 37.4999C53.0661 37.4999 53.2899 37.276 53.2899 36.9999H52.2899ZM48.2154 22.1769L48.7058 22.0793L48.2154 22.1769ZM5.78459 22.1769L6.275 22.2745L5.78459 22.1769ZM44.1433 85.152L43.8783 85.576L44.1433 85.152ZM39.0301 81.9563L39.2951 81.5323L39.0301 81.9563ZM44.1433 86.848L44.4083 87.272L44.1433 86.848ZM39.0301 90.0438L38.7651 89.6198L39.0301 90.0438ZM56.0001 24C55.7239 24 55.5001 24.2239 55.5001 24.5C55.5001 24.7761 55.7239 25 56.0001 25V24ZM67.0001 25C67.2762 25 67.5001 24.7761 67.5001 24.5C67.5001 24.2239 67.2762 24 67.0001 24V25ZM31.0001 62.5C31.0001 62.2239 30.7762 62 30.5001 62C30.2239 62 30.0001 62.2239 30.0001 62.5H31.0001ZM30.0001 66.5C30.0001 66.7761 30.2239 67 30.5001 67C30.7762 67 31.0001 66.7761 31.0001 66.5H30.0001ZM31.0001 68.5C31.0001 68.2239 30.7762 68 30.5001 68C30.2239 68 30.0001 68.2239 30.0001 68.5H31.0001ZM30.0001 72.5C30.0001 72.7761 30.2239 73 30.5001 73C30.7762 73 31.0001 72.7761 31.0001 72.5H30.0001ZM89.0001 20C89.2762 20 89.5001 19.7761 89.5001 19.5C89.5001 19.2239 89.2762 19 89.0001 19V20ZM84.0001 19C83.7239 19 83.5001 19.2239 83.5001 19.5C83.5001 19.7761 83.7239 20 84.0001 20V19ZM20.3536 37.3535C20.5489 37.1583 20.5489 36.8417 20.3536 36.6464C20.1583 36.4512 19.8418 36.4512 19.6465 36.6464L20.3536 37.3535ZM14.1465 42.1464C13.9512 42.3417 13.9512 42.6583 14.1465 42.8535C14.3418 43.0488 14.6583 43.0488 14.8536 42.8535L14.1465 42.1464ZM14.5001 45C14.2239 45 14.0001 45.2239 14.0001 45.5C14.0001 45.7761 14.2239 46 14.5001 46V45ZM20.0001 46C20.2762 46 20.5001 45.7761 20.5001 45.5C20.5001 45.2239 20.2762 45 20.0001 45V46ZM19.6465 54.3535C19.8418 54.5488 20.1583 54.5488 20.3536 54.3535C20.5489 54.1583 20.5489 53.8417 20.3536 53.6464L19.6465 54.3535ZM14.8536 48.1464C14.6583 47.9512 14.3418 47.9512 14.1465 48.1464C13.9512 48.3417 13.9512 48.6583 14.1465 48.8535L14.8536 48.1464ZM34.3536 36.6464C34.1583 36.4512 33.8418 36.4512 33.6465 36.6464C33.4512 36.8417 33.4512 37.1583 33.6465 37.3535L34.3536 36.6464ZM39.1465 42.8535C39.3418 43.0488 39.6583 43.0488 39.8536 42.8535C40.0489 42.6583 40.0489 42.3417 39.8536 42.1464L39.1465 42.8535ZM39.5001 46C39.7762 46 40.0001 45.7761 40.0001 45.5C40.0001 45.2239 39.7762 45 39.5001 45V46ZM34.0001 45C33.7239 45 33.5001 45.2239 33.5001 45.5C33.5001 45.7761 33.7239 46 34.0001 46V45ZM33.6465 53.6464C33.4512 53.8417 33.4512 54.1583 33.6465 54.3535C33.8418 54.5488 34.1583 54.5488 34.3536 54.3535L33.6465 53.6464ZM39.8536 48.8535C40.0489 48.6583 40.0489 48.3417 39.8536 48.1464C39.6583 47.9512 39.3418 47.9512 39.1465 48.1464L39.8536 48.8535ZM47.9457 21L48.4296 20.8743L47.9457 21ZM1.71008 36.9999V26.3192H0.710083V36.9999H1.71008ZM52.2899 26.3192V36.9999H53.2899V26.3192H52.2899ZM1.71008 26.3192C1.71008 12.352 13.0328 1.0293 27 1.0293V0.0292969C12.4805 0.0292969 0.710083 11.7997 0.710083 26.3192H1.71008ZM26.479 5.71837H27.521V4.71837H26.479V5.71837ZM6.275 22.2745C8.1542 12.8337 16.4862 5.71837 26.479 5.71837V4.71837C16 4.71837 7.2647 12.1797 5.29421 22.0793L6.275 22.2745ZM52.7899 25.8192C50.783 25.8192 49.1206 24.1633 48.7058 22.0793L47.725 22.2745C48.209 24.7059 50.1929 26.8192 52.7899 26.8192V25.8192ZM1.21008 26.8192C3.80705 26.8192 5.791 24.7059 6.275 22.2745L5.29421 22.0793C4.87939 24.1633 3.21704 25.8192 1.21008 25.8192V26.8192ZM32.5 23C32.5 22.1716 33.1716 21.5 34 21.5V20.5C32.6193 20.5 31.5 21.6193 31.5 23H32.5ZM90 21.5C90.8284 21.5 91.5 22.1716 91.5 23H92.5C92.5 21.6193 91.3807 20.5 90 20.5V21.5ZM91.5 23V94H92.5V23H91.5ZM91.5 94C91.5 94.8284 90.8284 95.5 90 95.5V96.5C91.3807 96.5 92.5 95.3807 92.5 94H91.5ZM90 95.5H34V96.5H90V95.5ZM34 95.5C33.1716 95.5 32.5 94.8284 32.5 94H31.5C31.5 95.3807 32.6193 96.5 34 96.5V95.5ZM32.5 94V23H31.5V94H32.5ZM46.0168 36.0103H50.1849V35.0103H46.0168V36.0103ZM50.1849 54.8086H46.0168V55.8086H50.1849V54.8086ZM42.3488 51.1405V39.6783H41.3488V51.1405H42.3488ZM46.0168 54.8086C43.991 54.8086 42.3488 53.1663 42.3488 51.1405H41.3488C41.3488 53.7186 43.4387 55.8086 46.0168 55.8086V54.8086ZM46.0168 35.0103C43.4387 35.0103 41.3488 37.1002 41.3488 39.6783H42.3488C42.3488 37.6525 43.991 36.0103 46.0168 36.0103V35.0103ZM7.9833 35.0103H3.81519V36.0103H7.9833V35.0103ZM3.81519 55.8086H7.9833V54.8086H3.81519V55.8086ZM12.6513 51.1405V39.6783H11.6513V51.1405H12.6513ZM7.9833 55.8086C10.5614 55.8086 12.6513 53.7186 12.6513 51.1405H11.6513C11.6513 53.1663 10.0091 54.8086 7.9833 54.8086V55.8086ZM7.9833 36.0103C10.0091 36.0103 11.6513 37.6525 11.6513 39.6783H12.6513C12.6513 37.1002 10.5614 35.0103 7.9833 35.0103V36.0103ZM44.4083 84.728L39.2951 81.5323L38.7651 82.3802L43.8783 85.576L44.4083 84.728ZM43.8783 86.424L38.7651 89.6198L39.2951 90.4678L44.4083 87.272L43.8783 86.424ZM43.8783 85.576C44.1916 85.7718 44.1916 86.2282 43.8783 86.424L44.4083 87.272C45.3483 86.6845 45.3483 85.3155 44.4083 84.728L43.8783 85.576ZM38.0001 82.8043C38.0001 82.4115 38.432 82.1721 38.7651 82.3802L39.2951 81.5323C38.296 80.9078 37.0001 81.6261 37.0001 82.8043H38.0001ZM37.0001 89.1958C37.0001 90.3739 38.296 91.0922 39.2951 90.4678L38.7651 89.6198C38.432 89.8279 38.0001 89.5885 38.0001 89.1958H37.0001ZM38.0001 89.1958V82.8043H37.0001V89.1958H38.0001ZM56.0001 25H67.0001V24H56.0001V25ZM30.0001 62.5V66.5H31.0001V62.5H30.0001ZM30.0001 68.5V72.5H31.0001V68.5H30.0001ZM89.0001 19H84.0001V20H89.0001V19ZM19.6465 36.6464L14.1465 42.1464L14.8536 42.8535L20.3536 37.3535L19.6465 36.6464ZM14.5001 46H20.0001V45H14.5001V46ZM20.3536 53.6464L14.8536 48.1464L14.1465 48.8535L19.6465 54.3535L20.3536 53.6464ZM33.6465 37.3535L39.1465 42.8535L39.8536 42.1464L34.3536 36.6464L33.6465 37.3535ZM39.5001 45H34.0001V46H39.5001V45ZM34.3536 54.3535L39.8536 48.8535L39.1465 48.1464L33.6465 53.6464L34.3536 54.3535ZM34 21.5H47.9457V20.5H34V21.5ZM48.7058 22.0793C48.625 21.6734 48.5328 21.2717 48.4296 20.8743L47.4618 21.1257C47.5601 21.5045 47.648 21.8875 47.725 22.2745L48.7058 22.0793ZM48.4296 20.8743C46.0161 11.5807 37.5706 4.71837 27.521 4.71837V5.71837C37.104 5.71837 45.1599 12.2621 47.4618 21.1257L48.4296 20.8743ZM52.2408 21.5H90V20.5H52.2408V21.5ZM27 1.0293C39.1785 1.0293 49.3475 9.63811 51.7514 21.1026L52.7301 20.8974C50.2311 8.97922 39.6613 0.0292969 27 0.0292969V1.0293ZM51.7514 21.1026C52.1043 22.7856 52.2899 24.5304 52.2899 26.3192H53.2899C53.2899 24.4611 53.0971 22.6474 52.7301 20.8974L51.7514 21.1026Z" fill="#000577"/>
</svg>
