<svg xmlns="http://www.w3.org/2000/svg" viewBox="0 0 34 65" width="34" height="65">
	<style>
		tspan { white-space:pre }
		.shp0 { fill: #2f373b } 
	</style>
	<g id="Fixed">
		<g id="Interests">
			<g id="1">
				<g id="Group 6">
					<path id="vespa" class="shp0" d="M32.21 23.47L25.05 23.47L25.05 19.86L32.21 19.86C33.2 19.86 34 20.67 34 21.67C34 22.66 33.2 23.47 32.21 23.47ZM26.84 7.22C26.84 4.23 24.44 1.81 21.47 1.81L12.53 1.81C9.56 1.81 7.16 4.23 7.16 7.22L7.16 18.06L5.37 18.06L5.37 7.22C5.37 3.23 8.57 0 12.53 0L21.47 0C25.43 0 28.63 3.23 28.63 7.22L28.63 18.06L26.84 18.06L26.84 7.22ZM8.95 23.47L1.79 23.47C0.8 23.47 0 22.66 0 21.67C0 20.67 0.8 19.86 1.79 19.86L8.95 19.86L8.95 23.47ZM17 27.99C13.54 27.99 10.74 25.16 10.74 21.67C10.74 18.18 13.54 15.35 17 15.35C20.46 15.35 23.26 18.18 23.26 21.67C23.26 25.16 20.46 27.99 17 27.99ZM17 18.06C15.02 18.06 13.42 19.67 13.42 21.67C13.42 23.66 15.02 25.28 17 25.28C18.98 25.28 20.58 23.66 20.58 21.67C20.58 19.67 18.98 18.06 17 18.06ZM10.94 25.47C12.2 27.52 14.43 28.89 17 28.89C19.57 28.89 21.8 27.52 23.06 25.47C26.25 26.2 28.63 29.06 28.63 32.5L28.63 50.56C28.63 53.92 26.34 56.72 23.26 57.52L23.26 47.73C23.26 44.24 20.46 41.41 17 41.41C13.54 41.41 10.74 44.24 10.74 47.73L10.74 57.52C7.65 56.72 5.37 53.92 5.37 50.56L5.37 32.5C5.37 29.06 7.75 26.2 10.94 25.47ZM17 43.33C19.47 43.33 21.47 45.35 21.47 47.85L21.47 60.49C21.47 62.98 19.47 65 17 65C14.53 65 12.53 62.98 12.53 60.49L12.53 47.85C12.53 45.35 14.53 43.33 17 43.33Z" />
				</g>
			</g>
		</g>
	</g>
</svg>