<svg xmlns="http://www.w3.org/2000/svg" viewBox="0 0 57 41" width="57" height="41">
	<style>
		tspan { white-space:pre }
		.shp0 { fill: #2f373b } 
	</style>
	<g id="Fixed">
		<g id="Interests">
			<g id="1">
				<g id="Group 7">
					<path id="playstation" fill-rule="evenodd" class="shp0" d="M28.55 3.55C32.58 3.55 37.34 0 39.79 0C54.63 0 62.98 40.87 51.89 40.87C44.97 40.87 38.89 29.02 28.51 29.02C15.69 29.02 14.43 41.01 5.06 41.01C-6.03 41.01 2.47 0 17.31 0C19.47 0 24.52 3.55 28.55 3.55ZM40.65 11.55C40.65 12.53 41.43 13.33 42.38 13.33C43.34 13.33 44.11 12.53 44.11 11.55C44.11 10.57 43.34 9.77 42.38 9.77C41.43 9.77 40.65 10.57 40.65 11.55ZM45.84 16.88C45.84 17.86 46.61 18.66 47.57 18.66C48.52 18.66 49.3 17.86 49.3 16.88C49.3 15.9 48.52 15.1 47.57 15.1C46.61 15.1 45.84 15.9 45.84 16.88ZM40.65 22.21C40.65 23.19 41.43 23.99 42.38 23.99C43.34 23.99 44.11 23.19 44.11 22.21C44.11 21.23 43.34 20.43 42.38 20.43C41.43 20.43 40.65 21.23 40.65 22.21ZM35.36 16.88C35.36 17.86 36.13 18.66 37.09 18.66C38.04 18.66 38.81 17.86 38.81 16.88C38.81 15.9 38.04 15.1 37.09 15.1C36.13 15.1 35.36 15.9 35.36 16.88ZM8.67 15.1C8.67 19.52 12.15 23.1 16.45 23.1C20.74 23.1 24.23 19.52 24.23 15.1C24.23 10.69 20.74 7.11 16.45 7.11C12.15 7.11 8.67 10.69 8.67 15.1ZM16.45 10.66C18.83 10.66 20.77 12.65 20.77 15.1C20.77 17.56 18.83 19.54 16.45 19.54C14.06 19.54 12.12 17.56 12.12 15.1C12.12 12.65 14.06 10.66 16.45 10.66Z" />
				</g>
			</g>
		</g>
	</g>
</svg>