<svg xmlns="http://www.w3.org/2000/svg" viewBox="0 0 44 39" width="44" height="39">
	<style>
		tspan { white-space:pre }
		.shp0 { fill: #2f373b } 
	</style>
	<g id="Professional skills">
		<g id="Heading">
			<g id="Group 4">
				<path id="graph chart 1" class="shp0" d="M0 0L1.67 0L1.7 37.35L44 37.44L44 39L0 39L0 0ZM16.92 0L22 0C22.93 0 23.69 0.73 23.69 1.62L23.69 34.12L15.23 34.12L15.23 1.62C15.23 0.73 15.99 0 16.92 0ZM6.77 9.75L11.85 9.75C12.78 9.75 13.54 10.48 13.54 11.37L13.54 34.12L5.08 34.12L5.08 11.37C5.08 10.48 5.83 9.75 6.77 9.75ZM27.08 19.5L32.15 19.5C33.09 19.5 33.85 20.23 33.85 21.12L33.85 34.12L25.38 34.12L25.38 21.12C25.38 20.23 26.14 19.5 27.08 19.5ZM37.23 29.25L42.31 29.25C43.24 29.25 44 29.98 44 30.87L44 34.12L35.54 34.12L35.54 30.87C35.54 29.98 36.3 29.25 37.23 29.25Z" />
			</g>
		</g>
	</g>
</svg>