<svg xmlns="http://www.w3.org/2000/svg" viewBox="0 0 114 114" width="114" height="114">
	<style>
		tspan { white-space:pre }
		.shp0 { fill: #3449dc } 
		.shp1 { fill: #2f373b } 
	</style>
	<g id="Fixed">
		<g id="Icon">
			<path id="Ellipse 3 copy 3" class="shp0" d="M56.98 -0.03C88.44 -0.03 113.94 25.5 113.94 57C113.94 88.5 88.44 114.03 56.98 114.03C25.53 114.03 0.03 88.5 0.03 57C0.03 25.5 25.53 -0.03 56.98 -0.03Z" />
			<path id="brief case 2 copy 3" class="shp1" d="M75.74 78L38.26 78C36.46 78 35 76.53 35 74.72L35 55.04C35 55.04 43.51 59.44 51.3 61.25L51.3 63.24C51.3 64.15 52.03 64.88 52.93 64.88L61.07 64.88C61.97 64.88 62.7 64.15 62.7 63.24L62.7 61.25C70.49 59.44 79 55.04 79 55.04L79 74.72C79 76.53 77.54 78 75.74 78ZM59.44 58.32C60.34 58.32 61.07 59.05 61.07 59.96L61.07 61.6C61.07 62.51 60.34 63.24 59.44 63.24L54.55 63.24C53.65 63.24 52.93 62.51 52.93 61.6L52.93 59.96C52.93 59.05 53.65 58.32 54.55 58.32L59.44 58.32ZM62.7 58.32C62.7 57.41 61.97 56.68 61.07 56.68L52.93 56.68C52.03 56.68 51.3 57.41 51.3 58.32L51.3 59.79C43.51 57.93 35 53.4 35 53.4L35 46.84C35 45.03 36.46 43.56 38.26 43.56L48.04 43.56L48.04 40.28C48.04 38.47 49.5 37 51.3 37L62.7 37C64.5 37 65.96 38.47 65.96 40.28L65.96 43.56L75.74 43.56C77.54 43.56 79 45.03 79 46.84L79 53.4C79 53.4 70.49 57.93 62.7 59.79L62.7 58.32ZM62.7 41.92C62.7 41.01 61.97 40.28 61.07 40.28L52.93 40.28C52.03 40.28 51.3 41.01 51.3 41.92C51.3 42.83 51.3 43.56 51.3 43.56L62.7 43.56C62.7 43.56 62.7 42.83 62.7 41.92Z" />
		</g>
	</g>
</svg>