<svg xmlns="http://www.w3.org/2000/svg" viewBox="0 0 44 41" width="44" height="41">
	<style>
		tspan { white-space:pre }
		.shp0 { fill: #2f373b } 
	</style>
	<g id="Fixed">
		<g id="Icon">
			<path id="brief case 2 copy 3" class="shp0" d="M40.74 41L3.26 41C1.46 41 0 39.53 0 37.72L0 18.04C0 18.04 8.51 22.44 16.3 24.25L16.3 26.24C16.3 27.15 17.03 27.88 17.93 27.88L26.07 27.88C26.97 27.88 27.7 27.15 27.7 26.24L27.7 24.25C35.49 22.44 44 18.04 44 18.04L44 37.72C44 39.53 42.54 41 40.74 41ZM24.44 21.32C25.34 21.32 26.07 22.05 26.07 22.96L26.07 24.6C26.07 25.51 25.34 26.24 24.44 26.24L19.55 26.24C18.65 26.24 17.93 25.51 17.93 24.6L17.93 22.96C17.93 22.05 18.65 21.32 19.55 21.32L24.44 21.32ZM27.7 21.32C27.7 20.41 26.97 19.68 26.07 19.68L17.93 19.68C17.03 19.68 16.3 20.41 16.3 21.32L16.3 22.79C8.51 20.93 0 16.4 0 16.4L0 9.84C0 8.03 1.46 6.56 3.26 6.56L13.04 6.56L13.04 3.28C13.04 1.47 14.5 0 16.3 0L27.7 0C29.5 0 30.96 1.47 30.96 3.28L30.96 6.56L40.74 6.56C42.54 6.56 44 8.03 44 9.84L44 16.4C44 16.4 35.49 20.93 27.7 22.79L27.7 21.32ZM27.7 4.92C27.7 4.01 26.97 3.28 26.07 3.28L17.93 3.28C17.03 3.28 16.3 4.01 16.3 4.92C16.3 5.83 16.3 6.56 16.3 6.56L27.7 6.56C27.7 6.56 27.7 5.83 27.7 4.92Z" />
		</g>
	</g>
</svg>