<svg xmlns="http://www.w3.org/2000/svg" viewBox="0 0 60 52" width="60" height="52">
	<style>
		tspan { white-space:pre }
		.shp0 { fill: #ffc33c } 
	</style>
	<g id="Fixed">
		<g id="Interests">
			<g id="1">
				<g id="Group 8">
					<path id="handset" class="shp0" d="M48.74 51.58L48.74 47.29L48.69 47.29C48.71 46.93 48.74 46.58 48.74 46.21L48.74 27.95L48.74 22.58C48.74 12.5 40.44 4.33 30.19 4.33C19.95 4.33 11.64 12.5 11.64 22.58L11.64 27.95L11.64 46.21C11.64 46.58 11.68 46.93 11.7 47.29L11.64 47.29L11.64 51.58C11.64 51.58 0.73 51.4 0.73 39.77C0.73 33.17 4.24 30.26 7.28 28.97L7.28 22.58C7.28 10.13 17.54 0.03 30.19 0.03C42.85 0.03 53.11 10.13 53.11 22.58L53.11 28.97C56.14 30.26 59.65 33.17 59.65 39.77C59.65 51.4 48.74 51.58 48.74 51.58ZM16.01 51.58L13.83 51.58L13.83 27.95L16.01 27.95L16.01 51.58ZM46.56 51.58L44.38 51.58L44.38 27.95L46.56 27.95L46.56 51.58Z" />
				</g>
			</g>
		</g>
	</g>
</svg>